<mxfile host="app.diagrams.net" modified="2020-06-21T11:44:27.598Z" agent="5.0 (Macintosh; Intel Mac OS X 10_15_5) AppleWebKit/537.36 (KHTML, like Gecko) Chrome/83.0.4103.97 Safari/537.36" etag="mEU7nkn3lA3QnizQ274e" version="13.3.0" type="github">
  <diagram id="4Av2Yie_X8sf1ISSoKC4" name="第 1 页">
    <mxGraphModel dx="1172" dy="438" grid="1" gridSize="10" guides="1" tooltips="1" connect="1" arrows="1" fold="1" page="1" pageScale="1" pageWidth="1920" pageHeight="1200" math="0" shadow="0">
      <root>
        <mxCell id="0" />
        <mxCell id="1" parent="0" />
        <mxCell id="lc9aMmngrIN7hKY_XPJU-11" style="edgeStyle=orthogonalEdgeStyle;rounded=0;orthogonalLoop=1;jettySize=auto;html=1;exitX=0.5;exitY=1;exitDx=0;exitDy=0;entryX=0.5;entryY=0;entryDx=0;entryDy=0;" edge="1" parent="1" source="lc9aMmngrIN7hKY_XPJU-1" target="lc9aMmngrIN7hKY_XPJU-2">
          <mxGeometry relative="1" as="geometry" />
        </mxCell>
        <mxCell id="lc9aMmngrIN7hKY_XPJU-1" value="socket" style="rounded=0;whiteSpace=wrap;html=1;" vertex="1" parent="1">
          <mxGeometry x="800" y="280" width="120" height="40" as="geometry" />
        </mxCell>
        <mxCell id="lc9aMmngrIN7hKY_XPJU-12" style="edgeStyle=orthogonalEdgeStyle;rounded=0;orthogonalLoop=1;jettySize=auto;html=1;exitX=0.5;exitY=1;exitDx=0;exitDy=0;entryX=0.5;entryY=0;entryDx=0;entryDy=0;" edge="1" parent="1" source="lc9aMmngrIN7hKY_XPJU-2" target="lc9aMmngrIN7hKY_XPJU-3">
          <mxGeometry relative="1" as="geometry" />
        </mxCell>
        <mxCell id="lc9aMmngrIN7hKY_XPJU-2" value="bind" style="rounded=0;whiteSpace=wrap;html=1;" vertex="1" parent="1">
          <mxGeometry x="800" y="400" width="120" height="40" as="geometry" />
        </mxCell>
        <mxCell id="lc9aMmngrIN7hKY_XPJU-9" style="edgeStyle=orthogonalEdgeStyle;rounded=0;orthogonalLoop=1;jettySize=auto;html=1;exitX=1;exitY=0.5;exitDx=0;exitDy=0;entryX=0;entryY=0.5;entryDx=0;entryDy=0;" edge="1" parent="1" source="lc9aMmngrIN7hKY_XPJU-3" target="lc9aMmngrIN7hKY_XPJU-7">
          <mxGeometry relative="1" as="geometry" />
        </mxCell>
        <mxCell id="lc9aMmngrIN7hKY_XPJU-13" style="edgeStyle=orthogonalEdgeStyle;rounded=0;orthogonalLoop=1;jettySize=auto;html=1;exitX=0.5;exitY=1;exitDx=0;exitDy=0;entryX=0.5;entryY=0;entryDx=0;entryDy=0;" edge="1" parent="1" source="lc9aMmngrIN7hKY_XPJU-3" target="lc9aMmngrIN7hKY_XPJU-4">
          <mxGeometry relative="1" as="geometry" />
        </mxCell>
        <mxCell id="lc9aMmngrIN7hKY_XPJU-3" value="sendto" style="rounded=0;whiteSpace=wrap;html=1;" vertex="1" parent="1">
          <mxGeometry x="800" y="520" width="120" height="40" as="geometry" />
        </mxCell>
        <mxCell id="lc9aMmngrIN7hKY_XPJU-4" value="recvfrom" style="rounded=0;whiteSpace=wrap;html=1;" vertex="1" parent="1">
          <mxGeometry x="800" y="640" width="120" height="40" as="geometry" />
        </mxCell>
        <mxCell id="lc9aMmngrIN7hKY_XPJU-14" style="edgeStyle=orthogonalEdgeStyle;rounded=0;orthogonalLoop=1;jettySize=auto;html=1;exitX=0.5;exitY=1;exitDx=0;exitDy=0;entryX=0.5;entryY=0;entryDx=0;entryDy=0;" edge="1" parent="1" source="lc9aMmngrIN7hKY_XPJU-5" target="lc9aMmngrIN7hKY_XPJU-6">
          <mxGeometry relative="1" as="geometry" />
        </mxCell>
        <mxCell id="lc9aMmngrIN7hKY_XPJU-5" value="&lt;span&gt;socket&lt;/span&gt;" style="rounded=0;whiteSpace=wrap;html=1;" vertex="1" parent="1">
          <mxGeometry x="1040" y="280" width="120" height="40" as="geometry" />
        </mxCell>
        <mxCell id="lc9aMmngrIN7hKY_XPJU-15" style="edgeStyle=orthogonalEdgeStyle;rounded=0;orthogonalLoop=1;jettySize=auto;html=1;exitX=0.5;exitY=1;exitDx=0;exitDy=0;entryX=0.5;entryY=0;entryDx=0;entryDy=0;" edge="1" parent="1" source="lc9aMmngrIN7hKY_XPJU-6" target="lc9aMmngrIN7hKY_XPJU-7">
          <mxGeometry relative="1" as="geometry" />
        </mxCell>
        <mxCell id="lc9aMmngrIN7hKY_XPJU-6" value="bind" style="rounded=0;whiteSpace=wrap;html=1;" vertex="1" parent="1">
          <mxGeometry x="1040" y="400" width="120" height="40" as="geometry" />
        </mxCell>
        <mxCell id="lc9aMmngrIN7hKY_XPJU-16" style="edgeStyle=orthogonalEdgeStyle;rounded=0;orthogonalLoop=1;jettySize=auto;html=1;exitX=0.5;exitY=1;exitDx=0;exitDy=0;entryX=0.5;entryY=0;entryDx=0;entryDy=0;" edge="1" parent="1" source="lc9aMmngrIN7hKY_XPJU-7" target="lc9aMmngrIN7hKY_XPJU-8">
          <mxGeometry relative="1" as="geometry" />
        </mxCell>
        <mxCell id="lc9aMmngrIN7hKY_XPJU-7" value="recvfrom" style="rounded=0;whiteSpace=wrap;html=1;" vertex="1" parent="1">
          <mxGeometry x="1040" y="520" width="120" height="40" as="geometry" />
        </mxCell>
        <mxCell id="lc9aMmngrIN7hKY_XPJU-10" style="edgeStyle=orthogonalEdgeStyle;rounded=0;orthogonalLoop=1;jettySize=auto;html=1;exitX=0;exitY=0.5;exitDx=0;exitDy=0;entryX=1;entryY=0.5;entryDx=0;entryDy=0;" edge="1" parent="1" source="lc9aMmngrIN7hKY_XPJU-8" target="lc9aMmngrIN7hKY_XPJU-4">
          <mxGeometry relative="1" as="geometry" />
        </mxCell>
        <mxCell id="lc9aMmngrIN7hKY_XPJU-8" value="sendto" style="rounded=0;whiteSpace=wrap;html=1;" vertex="1" parent="1">
          <mxGeometry x="1040" y="640" width="120" height="40" as="geometry" />
        </mxCell>
        <mxCell id="lc9aMmngrIN7hKY_XPJU-17" value="UDP客户端" style="text;html=1;strokeColor=none;fillColor=none;align=center;verticalAlign=middle;whiteSpace=wrap;rounded=0;" vertex="1" parent="1">
          <mxGeometry x="830" y="250" width="70" height="20" as="geometry" />
        </mxCell>
        <mxCell id="lc9aMmngrIN7hKY_XPJU-18" value="UDP服务端" style="text;html=1;strokeColor=none;fillColor=none;align=center;verticalAlign=middle;whiteSpace=wrap;rounded=0;" vertex="1" parent="1">
          <mxGeometry x="1065" y="250" width="70" height="20" as="geometry" />
        </mxCell>
      </root>
    </mxGraphModel>
  </diagram>
</mxfile>
